<?xml version="1.0" encoding="iso-8859-1"?>
<svg height="800px" width="800px" version="1.1" id="Capa_1" xmlns="http://www.w3.org/2000/svg" xmlns:xlink="http://www.w3.org/1999/xlink" 
	 viewBox="0 0 336.374 336.374" xml:space="preserve">
<g>
	<g>
		<polygon style="fill:#010002;" points="324.56,132.833 308.923,117.196 308.923,110.397 276.288,110.397 259.443,93.557 
			236.023,52.987 218.879,52.987 168.187,2.295 117.495,52.987 100.351,52.987 76.93,93.557 60.085,110.397 27.451,110.397 
			27.451,118.555 13.173,132.833 25.411,145.071 0,170.487 25.765,195.545 13.173,208.137 27.451,222.414 27.451,230.573 
			61.771,230.573 74.162,242.62 100.351,287.982 120.796,287.982 168.187,334.078 215.577,287.982 236.023,287.982 262.212,242.62 
			274.602,230.573 308.923,230.573 308.923,223.774 324.56,208.137 311.299,194.876 336.374,170.487 311.642,145.751 		"/>
	</g>
</g>
</svg>
